<svg width="330" height="100" viewBox="0 0 330 100" fill="none" xmlns="http://www.w3.org/2000/svg">
<rect width="330" height="100" fill="#060606"/>
<path d="M21 33.1218V20H45.9437L56 26.7358V40.3825L48.8028 45.4563L56 50.6175V64.1767L45.9437 71H21V57.5283L31.2535 50.6175H43.0845L48.1127 54.1166V60.59L43.0845 63.8268H29.4789V60.2401H41.9014L43.8732 58.753V55.9537L41.6056 54.4666H32.5352L24.9437 59.7153V67.4134H44.5634L51.7606 62.2521V52.2796L44.5634 47.3808H24.9437V50.6175L21.7887 52.6295H21V37.9331H21.7887L24.9437 40.3825V43.6192H44.5634L51.7606 38.5455V28.3979L44.5634 23.5866H24.9437V31.1973L32.5352 36.3585H41.9014L43.8732 34.8714V32.1595L41.6056 30.6724H29.4789V27.0858H43.2817L48.1127 30.4099V36.7084L43.0845 40.1201H31.2535L21 33.1218Z" fill="#83DED5"/>
<path d="M78.53 66.06C78.53 68.3 77.2467 69.42 74.68 69.42C72.02 69.42 70.69 68.3 70.69 66.06V37.08C70.69 33.2533 71.8333 30.5933 74.12 29.1C76.4067 27.6067 79.0433 26.86 82.03 26.86H90.01C91.7367 26.86 92.6 27.9567 92.6 30.15C92.6933 32.3433 91.83 33.44 90.01 33.44H82.59C80.91 33.44 79.8133 33.7667 79.3 34.42C78.7867 35.0733 78.53 35.9833 78.53 37.15V66.06ZM120.919 26.86C122.132 26.86 123.369 27.1167 124.629 27.63C125.935 28.1433 127.195 28.7967 128.409 29.59H128.339C129.552 30.4767 130.485 31.6433 131.139 33.09C131.792 34.49 132.119 36.1233 132.119 37.99V57.87C132.119 61.6967 130.859 64.52 128.339 66.34C125.865 68.1133 123.392 69 120.919 69H109.719C108.505 69 107.269 68.79 106.009 68.37C104.749 67.95 103.512 67.2733 102.299 66.34C99.7788 64.5667 98.5188 61.7433 98.5188 57.87V37.99C98.5188 36.1233 98.8455 34.49 99.4988 33.09C100.152 31.6433 101.085 30.4767 102.299 29.59H102.229C103.395 28.7967 104.632 28.1433 105.939 27.63C107.245 27.1167 108.505 26.86 109.719 26.86H120.919ZM119.659 62.42C121.385 62.42 122.599 61.93 123.299 60.95C124.045 59.97 124.419 58.92 124.419 57.8V38.06C124.419 36.8933 124.045 35.8433 123.299 34.91C122.599 33.93 121.385 33.44 119.659 33.44H110.979C109.252 33.44 108.015 33.93 107.269 34.91C106.569 35.8433 106.219 36.8933 106.219 38.06V57.8C106.219 58.92 106.569 59.97 107.269 60.95C108.015 61.93 109.252 62.42 110.979 62.42H119.659ZM148.67 66.06C148.67 68.3 147.387 69.42 144.82 69.42C142.253 69.42 140.97 68.3 140.97 66.06V37.92C140.97 36.0067 141.273 34.35 141.88 32.95C142.487 31.55 143.443 30.4067 144.75 29.52C147.223 27.7467 149.697 26.86 152.17 26.86H163.44C165.82 26.86 168.293 27.7467 170.86 29.52C173.38 31.2933 174.64 34.0933 174.64 37.92V66.06C174.64 68.3 173.357 69.42 170.79 69.42C168.223 69.42 166.94 68.3 166.94 66.06V38.55C166.94 37.3367 166.567 36.17 165.82 35.05L165.89 35.12C165.283 34 164.047 33.44 162.18 33.44H153.43C151.517 33.44 150.257 34 149.65 35.12C148.997 36.1 148.67 37.2433 148.67 38.55V66.06ZM183.205 33.44C181.525 33.44 180.638 32.3433 180.545 30.15C180.545 27.9567 181.431 26.86 183.205 26.86H207.495C208.988 26.86 210.155 27.1167 210.995 27.63C211.881 28.0967 212.371 28.75 212.465 29.59C212.511 30.3367 212.488 31.0833 212.395 31.83C212.348 32.5767 212.185 33.1367 211.905 33.51L190.415 62.42H210.225C211.905 62.42 212.745 63.5167 212.745 65.71C212.838 66.83 212.651 67.67 212.185 68.23C211.718 68.7433 211.065 69 210.225 69H185.095C182.061 69 180.428 68.1133 180.195 66.34C180.055 64.7067 180.218 63.3767 180.685 62.35L202.245 33.44H183.205ZM226.395 57.8C226.395 58.92 226.745 59.97 227.445 60.95C228.191 61.93 229.428 62.42 231.155 62.42H239.905C241.631 62.42 242.845 62 243.545 61.16C244.291 60.2733 244.665 59.27 244.665 58.15V57.38C244.665 55.1867 245.948 54.09 248.515 54.09C251.081 54.09 252.365 55.1867 252.365 57.38V58.22C252.365 60.18 252.038 61.79 251.385 63.05C250.778 64.31 249.845 65.4067 248.585 66.34C246.111 68.1133 243.638 69 241.165 69H229.405C226.931 69 224.528 68.1133 222.195 66.34C221.075 65.4067 220.211 64.24 219.605 62.84C218.998 61.3933 218.695 59.7367 218.695 57.87V37.92C218.695 34.14 219.861 31.34 222.195 29.52C223.361 28.68 224.551 28.0267 225.765 27.56C227.025 27.0467 228.238 26.79 229.405 26.79H241.165C242.285 26.79 243.521 27.0233 244.875 27.49C246.228 27.91 247.488 28.4933 248.655 29.24C249.775 30.0333 250.661 31.13 251.315 32.53C252.015 33.93 252.365 35.5867 252.365 37.5V46.95C252.365 48.0233 252.038 48.98 251.385 49.82C250.778 50.66 249.635 51.08 247.955 51.08H232.835C231.155 51.08 230.268 49.9833 230.175 47.79C230.175 45.5967 231.061 44.5 232.835 44.5H244.735L244.665 37.99C244.665 36.8233 244.291 35.7733 243.545 34.84C242.845 33.86 241.631 33.37 239.905 33.37H231.155C229.428 33.37 228.191 33.86 227.445 34.84C226.745 35.7733 226.395 36.8233 226.395 37.99V57.8ZM284.033 44.5C285.199 44.5 286.436 44.78 287.743 45.34C289.096 45.8533 290.356 46.5067 291.523 47.3H291.453C292.666 48.1867 293.599 49.33 294.253 50.73C294.906 52.13 295.233 53.81 295.233 55.77V57.87C295.233 61.6967 293.973 64.52 291.453 66.34C290.239 67.2733 289.003 67.95 287.743 68.37C286.483 68.79 285.246 69 284.033 69H272.133C270.919 69 269.683 68.79 268.423 68.37C267.163 67.95 265.926 67.2733 264.713 66.34C262.193 64.5667 260.932 61.7433 260.932 57.87V57.03C260.932 55.0233 262.216 54.0433 264.783 54.09C267.396 54.09 268.703 55.07 268.703 57.03V57.8C268.703 58.92 269.053 59.97 269.753 60.95C270.453 61.93 271.689 62.42 273.463 62.42H282.703C284.476 62.42 285.713 61.93 286.413 60.95C287.113 59.97 287.463 58.92 287.463 57.8V55.84C287.463 55.2333 287.369 54.65 287.183 54.09C287.043 53.53 286.786 53.04 286.413 52.62C286.039 52.1533 285.549 51.78 284.943 51.5C284.336 51.22 283.589 51.08 282.703 51.08H272.483C270.103 51.08 267.606 50.24 264.993 48.56C262.519 46.9733 261.283 44.2433 261.283 40.37V37.99C261.283 36.1233 261.609 34.49 262.263 33.09C262.916 31.6433 263.849 30.4767 265.062 29.59H264.993C266.159 28.7967 267.396 28.1433 268.703 27.63C270.009 27.1167 271.269 26.86 272.483 26.86H283.683C284.896 26.86 286.133 27.1167 287.393 27.63C288.699 28.1433 289.959 28.7967 291.173 29.59H291.103C292.316 30.4767 293.249 31.6433 293.903 33.09C294.556 34.49 294.882 36.1233 294.882 37.99V38.62C294.882 39.6 294.556 40.3233 293.903 40.79C293.249 41.21 292.293 41.4433 291.033 41.49C288.466 41.5367 287.183 40.58 287.183 38.62V38.06C287.183 36.8933 286.809 35.8433 286.063 34.91C285.363 33.93 284.149 33.44 282.423 33.44H273.743C272.016 33.44 270.779 33.93 270.033 34.91C269.333 35.8433 268.983 36.8933 268.983 38.06V39.74C268.983 40.9533 269.333 42.05 270.033 43.03C270.779 44.01 272.016 44.5 273.743 44.5H284.033Z" fill="#F3F3F3"/>
</svg>
