<svg width="1200" height="400" viewBox="0 0 1200 400" fill="none" xmlns="http://www.w3.org/2000/svg">
<rect width="1200" height="400" fill="black"/>
<path d="M149 136.667V69H275.144L326 103.736V174.11L289.603 200.274L326 226.89V296.813L275.144 332H149V262.528L200.854 226.89H260.685L286.113 244.935V278.317L260.685 295.009H191.879V276.513H254.701L264.673 268.844V254.408L253.206 246.739H207.335L168.944 273.806V313.504H268.163L304.561 286.889V235.461L268.163 210.199H168.944V226.89L152.989 237.266H149V161.479H152.989L168.944 174.11V190.801H268.163L304.561 164.636V112.307L268.163 87.4957H168.944V126.743L207.335 153.358H254.701L264.673 145.69V131.705L253.206 124.036H191.879V105.54H261.682L286.113 122.683V155.163L260.685 172.756H200.854L149 136.667Z" fill="#83DED5"/>
<path d="M401.38 310.76C401.38 317.8 397.347 321.32 389.28 321.32C380.92 321.32 376.74 317.8 376.74 310.76V219.68C376.74 207.653 380.333 199.293 387.52 194.6C394.707 189.907 402.993 187.56 412.38 187.56H437.46C442.887 187.56 445.6 191.007 445.6 197.9C445.893 204.793 443.18 208.24 437.46 208.24H414.14C408.86 208.24 405.413 209.267 403.8 211.32C402.187 213.373 401.38 216.233 401.38 219.9V310.76ZM534.602 187.56C538.415 187.56 542.302 188.367 546.262 189.98C550.369 191.593 554.329 193.647 558.142 196.14H557.922C561.735 198.927 564.669 202.593 566.722 207.14C568.775 211.54 569.802 216.673 569.802 222.54V285.02C569.802 297.047 565.842 305.92 557.922 311.64C550.149 317.213 542.375 320 534.602 320H499.402C495.589 320 491.702 319.34 487.742 318.02C483.782 316.7 479.895 314.573 476.082 311.64C468.162 306.067 464.202 297.193 464.202 285.02V222.54C464.202 216.673 465.229 211.54 467.282 207.14C469.335 202.593 472.269 198.927 476.082 196.14H475.862C479.529 193.647 483.415 191.593 487.522 189.98C491.629 188.367 495.589 187.56 499.402 187.56H534.602ZM530.642 299.32C536.069 299.32 539.882 297.78 542.082 294.7C544.429 291.62 545.602 288.32 545.602 284.8V222.76C545.602 219.093 544.429 215.793 542.082 212.86C539.882 209.78 536.069 208.24 530.642 208.24H503.362C497.935 208.24 494.049 209.78 491.702 212.86C489.502 215.793 488.402 219.093 488.402 222.76V284.8C488.402 288.32 489.502 291.62 491.702 294.7C494.049 297.78 497.935 299.32 503.362 299.32H530.642ZM621.82 310.76C621.82 317.8 617.787 321.32 609.72 321.32C601.653 321.32 597.62 317.8 597.62 310.76V222.32C597.62 216.307 598.573 211.1 600.48 206.7C602.387 202.3 605.393 198.707 609.5 195.92C617.273 190.347 625.047 187.56 632.82 187.56H668.24C675.72 187.56 683.493 190.347 691.56 195.92C699.48 201.493 703.44 210.293 703.44 222.32V310.76C703.44 317.8 699.407 321.32 691.34 321.32C683.273 321.32 679.24 317.8 679.24 310.76V224.3C679.24 220.487 678.067 216.82 675.72 213.3L675.94 213.52C674.033 210 670.147 208.24 664.28 208.24H636.78C630.767 208.24 626.807 210 624.9 213.52C622.847 216.6 621.82 220.193 621.82 224.3V310.76ZM730.357 208.24C725.077 208.24 722.291 204.793 721.997 197.9C721.997 191.007 724.784 187.56 730.357 187.56H806.697C811.391 187.56 815.057 188.367 817.697 189.98C820.484 191.447 822.024 193.5 822.317 196.14C822.464 198.487 822.391 200.833 822.097 203.18C821.951 205.527 821.437 207.287 820.557 208.46L753.017 299.32H815.277C820.557 299.32 823.197 302.767 823.197 309.66C823.491 313.18 822.904 315.82 821.437 317.58C819.971 319.193 817.917 320 815.277 320H736.297C726.764 320 721.631 317.213 720.897 311.64C720.457 306.507 720.971 302.327 722.437 299.1L790.197 208.24H730.357ZM866.097 284.8C866.097 288.32 867.197 291.62 869.397 294.7C871.744 297.78 875.631 299.32 881.057 299.32H908.557C913.984 299.32 917.797 298 919.997 295.36C922.344 292.573 923.517 289.42 923.517 285.9V283.48C923.517 276.587 927.551 273.14 935.617 273.14C943.684 273.14 947.717 276.587 947.717 283.48V286.12C947.717 292.28 946.691 297.34 944.637 301.3C942.731 305.26 939.797 308.707 935.837 311.64C928.064 317.213 920.291 320 912.517 320H875.557C867.784 320 860.231 317.213 852.897 311.64C849.377 308.707 846.664 305.04 844.757 300.64C842.851 296.093 841.897 290.887 841.897 285.02V222.32C841.897 210.44 845.564 201.64 852.897 195.92C856.564 193.28 860.304 191.227 864.117 189.76C868.077 188.147 871.891 187.34 875.557 187.34H912.517C916.037 187.34 919.924 188.073 924.177 189.54C928.431 190.86 932.391 192.693 936.057 195.04C939.577 197.533 942.364 200.98 944.417 205.38C946.617 209.78 947.717 214.987 947.717 221V250.7C947.717 254.073 946.691 257.08 944.637 259.72C942.731 262.36 939.137 263.68 933.857 263.68H886.337C881.057 263.68 878.271 260.233 877.977 253.34C877.977 246.447 880.764 243 886.337 243H923.737L923.517 222.54C923.517 218.873 922.344 215.573 919.997 212.64C917.797 209.56 913.984 208.02 908.557 208.02H881.057C875.631 208.02 871.744 209.56 869.397 212.64C867.197 215.573 866.097 218.873 866.097 222.54V284.8ZM1047.25 243C1050.91 243 1054.8 243.88 1058.91 245.64C1063.16 247.253 1067.12 249.307 1070.79 251.8H1070.57C1074.38 254.587 1077.31 258.18 1079.37 262.58C1081.42 266.98 1082.45 272.26 1082.45 278.42V285.02C1082.45 297.047 1078.49 305.92 1070.57 311.64C1066.75 314.573 1062.87 316.7 1058.91 318.02C1054.95 319.34 1051.06 320 1047.25 320H1009.85C1006.03 320 1002.15 319.34 998.185 318.02C994.225 316.7 990.338 314.573 986.525 311.64C978.605 306.067 974.645 297.193 974.645 285.02V282.38C974.645 276.073 978.678 272.993 986.745 273.14C994.958 273.14 999.065 276.22 999.065 282.38V284.8C999.065 288.32 1000.17 291.62 1002.37 294.7C1004.57 297.78 1008.45 299.32 1014.03 299.32H1043.07C1048.64 299.32 1052.53 297.78 1054.73 294.7C1056.93 291.62 1058.03 288.32 1058.03 284.8V278.64C1058.03 276.733 1057.73 274.9 1057.15 273.14C1056.71 271.38 1055.9 269.84 1054.73 268.52C1053.55 267.053 1052.01 265.88 1050.11 265C1048.2 264.12 1045.85 263.68 1043.07 263.68H1010.95C1003.47 263.68 995.618 261.04 987.405 255.76C979.632 250.773 975.745 242.193 975.745 230.02V222.54C975.745 216.673 976.772 211.54 978.825 207.14C980.878 202.593 983.812 198.927 987.625 196.14H987.405C991.072 193.647 994.958 191.593 999.065 189.98C1003.17 188.367 1007.13 187.56 1010.95 187.56H1046.15C1049.96 187.56 1053.85 188.367 1057.81 189.98C1061.91 191.593 1065.87 193.647 1069.69 196.14H1069.47C1073.28 198.927 1076.21 202.593 1078.27 207.14C1080.32 211.54 1081.34 216.673 1081.34 222.54V224.52C1081.34 227.6 1080.32 229.873 1078.27 231.34C1076.21 232.66 1073.21 233.393 1069.25 233.54C1061.18 233.687 1057.15 230.68 1057.15 224.52V222.76C1057.15 219.093 1055.97 215.793 1053.63 212.86C1051.43 209.78 1047.61 208.24 1042.19 208.24H1014.91C1009.48 208.24 1005.59 209.78 1003.25 212.86C1001.05 215.793 999.945 219.093 999.945 222.76V228.04C999.945 231.853 1001.05 235.3 1003.25 238.38C1005.59 241.46 1009.48 243 1014.91 243H1047.25Z" fill="#F3F3F3"/>
</svg>
