<svg width="400" height="400" viewBox="0 0 400 400" fill="none" xmlns="http://www.w3.org/2000/svg">
<rect width="400" height="400" fill="black"/>
<path d="M112 136.667V69H238.144L289 103.736V174.11L252.603 200.274L289 226.89V296.813L238.144 332H112V262.528L163.854 226.89H223.685L249.113 244.935V278.317L223.685 295.009H154.879V276.513H217.701L227.673 268.844V254.408L216.206 246.739H170.335L131.944 273.806V313.504H231.163L267.561 286.889V235.461L231.163 210.199H131.944V226.89L115.989 237.266H112V161.479H115.989L131.944 174.11V190.801H231.163L267.561 164.636V112.307L231.163 87.4957H131.944V126.743L170.335 153.358H217.701L227.673 145.69V131.705L216.206 124.036H154.879V105.54H224.682L249.113 122.683V155.163L223.685 172.756H163.854L112 136.667Z" fill="#83DED5"/>
</svg>
